<?xml version="1.0" encoding="UTF-8"?>
<!DOCTYPE svg PUBLIC "-//W3C//DTD SVG 1.1//EN" "http://www.w3.org/Graphics/SVG/1.1/DTD/svg11.dtd">
<!-- Creator: CorelDRAW 2020 (64-Bit) -->
<svg xmlns="http://www.w3.org/2000/svg" xml:space="preserve" width="185px" height="185px" version="1.1" style="shape-rendering:geometricPrecision; text-rendering:geometricPrecision; image-rendering:optimizeQuality; fill-rule:evenodd; clip-rule:evenodd"
viewBox="0 0 104.3 104.17"
 xmlns:xlink="http://www.w3.org/1999/xlink"
 xmlns:xodm="http://www.corel.com/coreldraw/odm/2003">
 <defs>
  <style type="text/css">
   <![CDATA[
    .str0 {stroke:white;stroke-width:2.25;stroke-miterlimit:22.9256}
    .str2 {stroke:white;stroke-width:1.12;stroke-linecap:round;stroke-linejoin:round;stroke-miterlimit:22.9256}
    .str1 {stroke:#FEFEFE;stroke-width:2.25;stroke-linecap:round;stroke-linejoin:round;stroke-miterlimit:22.9256;stroke-dasharray:2.250000 6.750000}
    .fil0 {fill:none}
   ]]>
  </style>
 </defs>
 <g id="Layer_x0020_1">
  <metadata id="CorelCorpID_0Corel-Layer"/>
  <circle class="fil0 str0" transform="matrix(0.855396 0.260221 -0.260221 0.855396 52.1381 52.069)" r="24.61"/>
  <line class="fil0 str1" x1="60.18" y1="24.94" x2="67.56" y2= "0.7" />
  <line class="fil0 str1" x1="72.64" y1="32.59" x2="91.16" y2= "15.28" />
  <line class="fil0 str1" x1="79.61" y1="45.44" x2="104.3" y2= "39.7" />
  <line class="fil0 str1" x1="79.23" y1="60.05" x2="103.47" y2= "67.43" />
  <line class="fil0 str1" x1="71.58" y1="72.51" x2="88.89" y2= "91.03" />
  <line class="fil0 str1" x1="58.73" y1="79.48" x2="64.47" y2= "104.17" />
  <line class="fil0 str1" x1="44.12" y1="79.09" x2="36.74" y2= "103.34" />
  <line class="fil0 str1" x1="31.66" y1="71.45" x2="13.15" y2= "88.76" />
  <line class="fil0 str1" x1="24.69" y1="58.6" x2="0" y2= "64.34" />
  <line class="fil0 str1" x1="25.08" y1="43.99" x2="0.83" y2= "36.61" />
  <line class="fil0 str1" x1="32.47" y1="31.66" x2="15.16" y2= "13.15" />
  <line class="fil0 str1" x1="45.32" y1="24.69" x2="39.59" y2= "0" />
  <path class="fil0 str2" d="M35.24 55.67c1.31,6.15 5.86,11.1 11.87,12.93 9.13,2.78 18.78,-2.37 21.56,-11.5"/>
 </g>
</svg>
