<?xml version="1.0" encoding="UTF-8"?>
<!DOCTYPE svg PUBLIC "-//W3C//DTD SVG 1.1//EN" "http://www.w3.org/Graphics/SVG/1.1/DTD/svg11.dtd">
<!-- Creator: CorelDRAW 2020 (64-Bit) -->
<svg xmlns="http://www.w3.org/2000/svg" xml:space="preserve" width="252px" height="28px" version="1.1" style="shape-rendering:geometricPrecision; text-rendering:geometricPrecision; image-rendering:optimizeQuality; fill-rule:evenodd; clip-rule:evenodd"
viewBox="0 0 403.83 44.87"
 xmlns:xlink="http://www.w3.org/1999/xlink"
 xmlns:xodm="http://www.corel.com/coreldraw/odm/2003">
 <defs>
  <style type="text/css">
   <![CDATA[
    .str0 {stroke:#F4F4F4;stroke-width:0.66;stroke-miterlimit:22.9256}
    .fil0 {fill:#FEFEFE}
   ]]>
  </style>
 </defs>
 <g id="Слой_x0020_1">
  <metadata id="CorelCorpID_0Corel-Layer"/>
  <path class="fil0 str0" d="M104.59 11.71l0 -9.38c-12.6,2.12 -21.26,12.06 -20.01,22.97 1.25,10.92 12,19.24 24.85,19.24 12.84,0 23.59,-8.32 24.84,-19.24 1.25,-10.91 -7.41,-20.85 -20.01,-22.97l0 9.38c6.43,1.96 9.83,7.59 8.66,13.33 -1.17,5.73 -7,9.92 -13.82,9.92 -6.83,0 -12.66,-4.19 -13.83,-9.92 -1.16,-5.74 2.9,-11.37 9.32,-13.33z"/>
  <g id="_2475544091600">
   <path class="fil0" d="M11.19 44.24l0.85 0 0 -10.39c10.58,-0.36 18.5,-2.87 22.38,-9.34 3.15,-5.24 3.33,-7.83 -0.49,-13.14 -5.91,-8.21 -18.2,-10.66 -33.93,-9.76l0 8.92 7.92 0c3.75,0 6.24,0.08 9.96,1.01 5.52,1.37 8.35,3.56 8.49,6.54 -1.9,5.46 -6.67,7.55 -14.33,7.4l0 -10.14 -12.01 0 0 28.9 11.16 0z"/>
   <polygon class="fil0" points="25.22,28.99 15.6,32.28 25.27,44.29 38.41,44.29 "/>
  </g>
  <path class="fil0" d="M60.32 11.71l0 -9.38c-12.6,2.12 -21.25,12.06 -20,22.97 1.25,10.92 12,19.24 24.84,19.24 12.85,0 23.59,-8.32 24.84,-19.24 1.25,-10.91 -7.4,-20.85 -20,-22.97l0 9.38c6.42,1.96 9.82,7.59 8.66,13.33 -1.17,5.73 -7.01,9.92 -13.83,9.92 -6.82,0 -12.66,-4.19 -13.82,-9.92 -1.17,-5.74 2.89,-11.37 9.31,-13.33z"/>
  <path class="fil0" d="M212.4 24.4c-0.93,-6.08 2.34,-12.02 7.96,-14.5 5.63,-2.48 12.22,-0.5 16.08,4.29l11.64 0c-4.33,-9.77 -14.63,-15.47 -25.21,-13.94 -10.57,1.53 -18.84,9.91 -20.21,20.51 -0.22,8.41 4.16,16.27 11.42,20.52 7.26,4.25 16.26,4.21 23.49,-0.09 7.23,-4.31 11.54,-12.21 11.26,-20.62l-26 0 0 6.01 15.67 0c-2.25,5.72 -8.06,9.97 -14.17,9.28 -6.11,-0.68 -11,-5.38 -11.93,-11.46z"/>
  <path class="fil0" d="M315.45 0.74c-3.74,5.89 -9.93,9.85 -16.87,10.79 -1.84,3.22 -2.64,6.73 -2.64,10.46 0,5.95 1.86,11.04 6.15,15.25 4.33,4.25 9.52,6.08 15.54,6.08 0.66,0 4.84,0.01 5.56,0l0 -9.69c-0.88,0.04 -5.21,0.04 -5.88,0.04 -3.05,0 -5.81,-1.07 -7.94,-3.27 -2.13,-2.18 -3.12,-4.97 -3.12,-7.99 0,-3.08 1.17,-5.82 3.35,-8.01 2.18,-2.19 4.94,-3.38 8.05,-3.38 3.33,0 6.29,1.28 8.41,3.87 2.08,2.54 2.86,5.68 2.86,8.9l0 19.52 10 0 0 -20.85c0,-5.94 -1.37,-11.74 -5.67,-16.09 -4.26,-4.31 -9.92,-5.71 -15.84,-5.71 -0.65,0 -1.3,0.03 -1.96,0.08z"/>
  <g id="_2475544098704">
   <path class="fil0" d="M265.3 43.22l0.84 0 0 -10.39c10.59,-0.37 18.5,-2.88 22.39,-9.34 3.15,-5.25 3.33,-7.84 -0.49,-13.14 -5.91,-8.22 -18.21,-10.66 -33.93,-9.76l0 8.91 7.92 0c3.75,0 6.23,0.09 9.95,1.02 5.52,1.37 8.35,3.55 8.5,6.54 -1.9,5.45 -6.68,7.54 -14.34,7.39l0 -10.14 -12.01 0 0 28.91 11.17 0z"/>
   <polygon class="fil0" points="279.33,27.97 269.71,31.25 279.38,43.26 292.51,43.26 "/>
  </g>
  <path class="fil0" d="M379.72 20.85c0,-4.2 1.46,-8.93 6.48,-8.93 2.26,0 4.26,1 5.33,3.03 0.9,1.68 1.03,3.97 1.03,5.85l0 22.7 11.27 0 0 -24.34c0,-4.3 -0.66,-9.41 -3.51,-12.84 -3.12,-3.74 -7.06,-5.37 -11.91,-5.37 -4.6,0 -8.68,2.82 -11.87,5.88l-2.54 2.43 -2.41 -2.57c-3.25,-3.47 -7.14,-5.74 -11.97,-5.74 -4.32,0 -7.85,1.55 -10.84,4.66 -3.1,3.23 -4.54,7.02 -4.54,11.49l0 26.4 11.27 0 0 -22.65c0,-4.21 1.48,-8.93 6.5,-8.93 2.23,0 4.21,0.98 5.32,2.95 0.96,1.71 1.12,4.01 1.12,5.93l0 22.7 11.27 0 0 -22.65z"/>
  <path class="fil0" d="M173.44 20.59c0,-4.2 1.47,-8.93 6.49,-8.93 2.26,0 4.25,1 5.33,3.03 0.9,1.68 1.02,3.97 1.02,5.85l0 22.7 11.27 0 0 -24.34c0,-4.3 -0.65,-9.41 -3.51,-12.84 -3.12,-3.74 -7.05,-5.37 -11.9,-5.37 -4.6,0 -8.68,2.81 -11.87,5.88l-2.54 2.43 -2.41 -2.57c-3.26,-3.47 -7.14,-5.74 -11.97,-5.74 -4.32,0 -7.86,1.55 -10.84,4.66 -3.1,3.23 -4.55,7.02 -4.55,11.49l0 26.4 11.27 0 0 -22.65c0,-4.21 1.49,-8.93 6.51,-8.93 2.23,0 4.21,0.98 5.32,2.95 0.96,1.71 1.11,4.01 1.11,5.93l0 22.7 11.27 0 0 -22.65z"/>
 </g>
</svg>
