<?xml version="1.0" encoding="UTF-8"?>
<!DOCTYPE svg PUBLIC "-//W3C//DTD SVG 1.1//EN" "http://www.w3.org/Graphics/SVG/1.1/DTD/svg11.dtd">
<!-- Creator: CorelDRAW 2020 (64-Bit) -->
<svg xmlns="http://www.w3.org/2000/svg" xml:space="preserve" width="145px" height="91px" version="1.1" style="shape-rendering:geometricPrecision; text-rendering:geometricPrecision; image-rendering:optimizeQuality; fill-rule:evenodd; clip-rule:evenodd"
viewBox="0 0 34.03 21.4"
 xmlns:xlink="http://www.w3.org/1999/xlink"
 xmlns:xodm="http://www.corel.com/coreldraw/odm/2003">
 <defs>
  <style type="text/css">
   <![CDATA[
    .str0 {stroke:white;stroke-width:0.47;stroke-linecap:round;stroke-linejoin:round;stroke-miterlimit:22.9256}
    .fil1 {fill:none}
    .fil0 {fill:white;fill-rule:nonzero}
   ]]>
  </style>
 </defs>
 <g id="Layer_x0020_1">
  <metadata id="CorelCorpID_0Corel-Layer"/>
  <g>
   <path class="fil0" d="M0 13.29l0.47 0.02 0 -0.02 0.03 0.32 0.06 0.32 0.08 0.33 0.11 0.33 0.13 0.33 0.16 0.33 0.19 0.34 0.21 0.32 0.25 0.33 0.28 0.33 0.31 0.32 0.34 0.31 0.38 0.31 0.41 0.3 0.45 0.3 0.49 0.28 0.53 0.28 0.56 0.26 0.61 0.25 0.65 0.24 0.69 0.23 0.73 0.21 0.78 0.19 0.82 0.18 0.87 0.16 0.91 0.14 0.96 0.12 1.01 0.1 1.06 0.08 1.11 0.06 1.17 0.03 1.21 0.01 0 0.47 -1.22 -0.01 -1.17 -0.03 -1.13 -0.06 -1.07 -0.08 -1.02 -0.1 -0.97 -0.12 -0.93 -0.15 -0.88 -0.16 -0.84 -0.18 -0.79 -0.2 -0.75 -0.21 -0.71 -0.23 -0.66 -0.25 -0.63 -0.26 -0.58 -0.27 -0.55 -0.29 -0.5 -0.3 -0.47 -0.3 -0.44 -0.32 -0.4 -0.32 -0.36 -0.34 -0.33 -0.34 -0.3 -0.34 -0.26 -0.35 -0.24 -0.36 -0.2 -0.36 -0.17 -0.36 -0.15 -0.36 -0.11 -0.36 -0.09 -0.36 -0.06 -0.36 -0.04 -0.35 0 -0.03zm0 0.03l0 -0.01 0 -0.02 0 0.03zm2.61 -3.93l0.22 0.41 0 0 -0.12 0.07 -0.12 0.07 -0.11 0.08 -0.12 0.08 -0.11 0.08 -0.11 0.08 -0.11 0.09 -0.11 0.09 -0.1 0.09 -0.1 0.1 -0.1 0.09 -0.09 0.11 -0.09 0.1 -0.09 0.11 -0.08 0.1 -0.09 0.11 -0.07 0.12 -0.08 0.11 -0.06 0.12 -0.07 0.12 -0.06 0.12 -0.06 0.13 -0.05 0.12 -0.05 0.13 -0.04 0.13 -0.04 0.13 -0.04 0.14 -0.02 0.13 -0.03 0.14 -0.02 0.14 -0.01 0.14 -0.01 0.14 -0.47 -0.02 0.01 -0.16 0.02 -0.16 0.02 -0.15 0.02 -0.16 0.04 -0.15 0.04 -0.15 0.04 -0.15 0.05 -0.15 0.05 -0.14 0.06 -0.14 0.07 -0.14 0.06 -0.14 0.08 -0.13 0.07 -0.13 0.09 -0.13 0.08 -0.13 0.09 -0.12 0.09 -0.12 0.1 -0.12 0.1 -0.11 0.1 -0.11 0.11 -0.11 0.11 -0.1 0.11 -0.11 0.12 -0.09 0.12 -0.1 0.12 -0.09 0.12 -0.09 0.13 -0.09 0.12 -0.08 0.13 -0.07 0.14 -0.08 0 0zm2.02 -0.43l0.47 -0.02 -0.22 0.24 -0.07 0.01 -0.06 0 -0.07 0.01 -0.06 0.01 -0.07 0.01 -0.06 0.01 -0.07 0.01 -0.06 0.01 -0.07 0.01 -0.07 0.02 -0.06 0.01 -0.07 0.02 -0.06 0.01 -0.07 0.02 -0.06 0.02 -0.06 0.02 -0.07 0.02 -0.06 0.02 -0.07 0.02 -0.06 0.02 -0.07 0.03 -0.06 0.02 -0.06 0.03 -0.06 0.02 -0.07 0.03 -0.06 0.03 -0.06 0.03 -0.06 0.03 -0.07 0.03 -0.06 0.03 -0.06 0.03 -0.06 0.03 -0.22 -0.41 0.06 -0.04 0.07 -0.03 0.06 -0.03 0.07 -0.04 0.07 -0.03 0.07 -0.03 0.06 -0.03 0.07 -0.03 0.07 -0.03 0.07 -0.03 0.07 -0.02 0.07 -0.03 0.07 -0.02 0.07 -0.03 0.07 -0.02 0.07 -0.02 0.07 -0.02 0.07 -0.02 0.07 -0.02 0.07 -0.02 0.07 -0.02 0.07 -0.01 0.08 -0.02 0.07 -0.01 0.07 -0.01 0.07 -0.02 0.07 -0.01 0.08 -0.01 0.07 -0.01 0.07 0 0.07 -0.01 0.07 -0.01 -0.21 0.25zm0.47 -0.02l0 0.23 -0.22 0.01 0.22 -0.24zm4.81 -5.45l0 0.47 0 0 -0.25 0 -0.25 0.02 -0.25 0.03 -0.24 0.05 -0.24 0.05 -0.24 0.07 -0.22 0.08 -0.23 0.09 -0.21 0.1 -0.22 0.11 -0.2 0.12 -0.2 0.13 -0.19 0.14 -0.18 0.15 -0.18 0.16 -0.17 0.16 -0.16 0.18 -0.15 0.18 -0.14 0.19 -0.13 0.19 -0.13 0.2 -0.11 0.21 -0.1 0.22 -0.09 0.22 -0.09 0.22 -0.07 0.23 -0.06 0.24 -0.05 0.24 -0.03 0.24 -0.03 0.25 -0.01 0.26 0.01 0.25 -0.47 0.02 -0.01 -0.28 0.02 -0.28 0.02 -0.27 0.04 -0.27 0.05 -0.26 0.07 -0.26 0.08 -0.26 0.09 -0.24 0.1 -0.25 0.11 -0.23 0.13 -0.23 0.13 -0.22 0.15 -0.22 0.16 -0.21 0.16 -0.19 0.18 -0.19 0.18 -0.19 0.19 -0.17 0.2 -0.16 0.21 -0.15 0.22 -0.15 0.23 -0.13 0.23 -0.12 0.24 -0.11 0.24 -0.1 0.25 -0.09 0.26 -0.07 0.26 -0.06 0.27 -0.05 0.27 -0.04 0.28 -0.02 0.27 0 0 0zm1.51 0.48l0.46 0.12 -0.31 0.16 -0.05 -0.01 -0.05 -0.02 -0.05 -0.02 -0.05 -0.01 -0.05 -0.02 -0.05 -0.02 -0.05 -0.01 -0.05 -0.01 -0.05 -0.02 -0.05 -0.01 -0.05 -0.01 -0.05 -0.02 -0.05 -0.01 -0.05 -0.01 -0.05 -0.01 -0.05 -0.01 -0.06 -0.01 -0.05 0 -0.05 -0.01 -0.05 -0.01 -0.06 -0.01 -0.05 0 -0.05 -0.01 -0.05 0 -0.06 -0.01 -0.05 0 -0.05 -0.01 -0.06 0 -0.05 0 -0.06 0 -0.05 0 -0.06 0 0 -0.47 0.06 0 0.06 0 0.06 0 0.06 0 0.06 0 0.06 0.01 0.06 0 0.06 0.01 0.06 0 0.06 0.01 0.05 0.01 0.06 0 0.06 0.01 0.06 0.01 0.05 0.01 0.06 0.01 0.06 0.01 0.05 0.01 0.06 0.01 0.06 0.02 0.05 0.01 0.06 0.01 0.05 0.02 0.06 0.01 0.05 0.02 0.06 0.01 0.05 0.02 0.06 0.02 0.05 0.02 0.05 0.01 0.06 0.02 0.05 0.02 -0.31 0.16zm0.46 0.12l-0.07 0.25 -0.24 -0.09 0.31 -0.16zm4.67 -4.09l0 0.47 0 0 -0.21 0 -0.21 0.02 -0.2 0.02 -0.21 0.03 -0.2 0.04 -0.19 0.05 -0.2 0.05 -0.19 0.06 -0.18 0.07 -0.18 0.08 -0.18 0.09 -0.18 0.09 -0.17 0.1 -0.16 0.1 -0.16 0.11 -0.16 0.12 -0.15 0.12 -0.15 0.13 -0.14 0.14 -0.13 0.14 -0.13 0.15 -0.13 0.15 -0.11 0.16 -0.11 0.16 -0.11 0.16 -0.1 0.17 -0.09 0.18 -0.08 0.18 -0.08 0.18 -0.07 0.19 -0.06 0.19 -0.05 0.19 -0.46 -0.12 0.06 -0.21 0.07 -0.21 0.08 -0.2 0.08 -0.2 0.09 -0.2 0.1 -0.19 0.11 -0.19 0.11 -0.18 0.13 -0.18 0.12 -0.17 0.14 -0.17 0.14 -0.16 0.15 -0.15 0.15 -0.15 0.16 -0.14 0.17 -0.14 0.17 -0.13 0.18 -0.12 0.18 -0.12 0.19 -0.1 0.19 -0.11 0.19 -0.09 0.2 -0.08 0.21 -0.08 0.21 -0.07 0.21 -0.06 0.21 -0.05 0.22 -0.04 0.23 -0.04 0.22 -0.02 0.23 -0.02 0.23 0 0 0zm4.89 4.07l0.14 0.45 -0.3 -0.18 -0.04 -0.21 -0.06 -0.2 -0.06 -0.2 -0.07 -0.19 -0.08 -0.19 -0.09 -0.19 -0.09 -0.18 -0.1 -0.18 -0.11 -0.17 -0.12 -0.17 -0.12 -0.16 -0.13 -0.15 -0.14 -0.16 -0.14 -0.14 -0.15 -0.14 -0.15 -0.13 -0.16 -0.13 -0.17 -0.12 -0.17 -0.11 -0.17 -0.11 -0.18 -0.1 -0.18 -0.09 -0.19 -0.08 -0.2 -0.08 -0.19 -0.06 -0.2 -0.06 -0.21 -0.05 -0.2 -0.04 -0.21 -0.04 -0.22 -0.02 -0.21 -0.02 -0.22 0 0 -0.47 0.24 0.01 0.24 0.01 0.23 0.03 0.23 0.03 0.23 0.05 0.22 0.05 0.22 0.07 0.22 0.07 0.21 0.09 0.2 0.09 0.21 0.1 0.19 0.11 0.2 0.11 0.18 0.13 0.18 0.13 0.18 0.14 0.17 0.14 0.16 0.15 0.15 0.16 0.15 0.17 0.15 0.17 0.13 0.18 0.13 0.18 0.12 0.19 0.11 0.2 0.1 0.2 0.1 0.2 0.09 0.21 0.07 0.21 0.07 0.22 0.06 0.22 0.05 0.23 -0.3 -0.18zm0.14 0.45l-0.25 0.07 -0.05 -0.25 0.3 0.18zm1.43 -0.69l0 0.47 0 0 -0.05 0 -0.04 0 -0.05 0.01 -0.05 0 -0.04 0 -0.05 0 -0.05 0 -0.04 0.01 -0.05 0 -0.04 0.01 -0.05 0 -0.04 0.01 -0.05 0 -0.04 0.01 -0.05 0 -0.04 0.01 -0.05 0.01 -0.04 0 -0.05 0.01 -0.04 0.01 -0.04 0.01 -0.05 0.01 -0.04 0.01 -0.04 0.01 -0.05 0.01 -0.04 0.01 -0.05 0.01 -0.04 0.01 -0.04 0.01 -0.04 0.01 -0.05 0.02 -0.04 0.01 -0.14 -0.45 0.05 -0.01 0.05 -0.02 0.04 -0.01 0.05 -0.01 0.05 -0.02 0.04 -0.01 0.05 -0.01 0.05 -0.01 0.05 -0.01 0.05 -0.01 0.04 -0.01 0.05 -0.01 0.05 -0.01 0.05 -0.01 0.05 -0.01 0.05 -0.01 0.05 0 0.04 -0.01 0.05 -0.01 0.05 0 0.05 -0.01 0.05 0 0.05 -0.01 0.05 0 0.05 0 0.05 -0.01 0.05 0 0.05 0 0.06 0 0.05 -0.01 0.05 0 0.05 0 0 0zm5.04 4.71l0 0.47 -0.23 -0.22 -0.02 -0.23 -0.04 -0.23 -0.04 -0.23 -0.05 -0.22 -0.07 -0.22 -0.07 -0.21 -0.08 -0.21 -0.1 -0.21 -0.1 -0.2 -0.11 -0.19 -0.12 -0.19 -0.13 -0.18 -0.13 -0.18 -0.14 -0.16 -0.15 -0.17 -0.16 -0.15 -0.17 -0.15 -0.17 -0.14 -0.18 -0.13 -0.18 -0.13 -0.19 -0.11 -0.2 -0.11 -0.2 -0.1 -0.21 -0.09 -0.21 -0.08 -0.21 -0.07 -0.22 -0.06 -0.23 -0.05 -0.23 -0.04 -0.23 -0.02 -0.23 -0.02 -0.24 -0.01 0 -0.47 0.26 0.01 0.26 0.02 0.25 0.03 0.25 0.04 0.25 0.06 0.24 0.06 0.24 0.08 0.23 0.09 0.23 0.09 0.22 0.11 0.21 0.12 0.21 0.13 0.2 0.13 0.2 0.15 0.19 0.15 0.18 0.16 0.17 0.17 0.17 0.18 0.15 0.19 0.15 0.19 0.14 0.2 0.13 0.21 0.13 0.21 0.11 0.22 0.1 0.22 0.09 0.23 0.08 0.24 0.07 0.24 0.06 0.24 0.05 0.25 0.03 0.25 0.03 0.26 -0.24 -0.22zm0 0.47l-0.22 0 -0.01 -0.22 0.23 0.22zm5.4 6.33l-0.41 -0.21 0 0 0.13 -0.29 0.12 -0.28 0.09 -0.29 0.07 -0.28 0.06 -0.28 0.03 -0.28 0.02 -0.27 -0.01 -0.27 -0.02 -0.26 -0.05 -0.26 -0.06 -0.25 -0.08 -0.25 -0.09 -0.24 -0.12 -0.23 -0.13 -0.23 -0.15 -0.22 -0.17 -0.21 -0.19 -0.2 -0.2 -0.19 -0.23 -0.18 -0.24 -0.18 -0.25 -0.16 -0.28 -0.14 -0.29 -0.14 -0.31 -0.12 -0.33 -0.11 -0.34 -0.09 -0.36 -0.08 -0.38 -0.06 -0.39 -0.04 -0.41 -0.03 -0.43 -0.01 0 -0.47 0.45 0.01 0.43 0.03 0.42 0.04 0.4 0.07 0.38 0.08 0.37 0.1 0.35 0.12 0.33 0.13 0.32 0.15 0.3 0.16 0.28 0.17 0.27 0.19 0.25 0.2 0.22 0.22 0.21 0.22 0.19 0.24 0.17 0.25 0.16 0.25 0.13 0.27 0.11 0.27 0.09 0.28 0.07 0.29 0.04 0.29 0.03 0.3 0.01 0.3 -0.02 0.31 -0.04 0.3 -0.06 0.31 -0.08 0.32 -0.1 0.31 -0.13 0.31 -0.15 0.31 0 0zm-15.43 6.06l0 -0.47 0 0 0.82 -0.01 0.79 -0.03 0.77 -0.04 0.75 -0.06 0.72 -0.07 0.7 -0.09 0.68 -0.1 0.65 -0.12 0.63 -0.12 0.61 -0.14 0.58 -0.15 0.56 -0.16 0.54 -0.18 0.52 -0.18 0.49 -0.19 0.48 -0.2 0.45 -0.21 0.43 -0.21 0.41 -0.22 0.38 -0.24 0.37 -0.23 0.34 -0.24 0.33 -0.25 0.3 -0.25 0.29 -0.26 0.26 -0.26 0.24 -0.26 0.23 -0.26 0.2 -0.27 0.18 -0.27 0.17 -0.26 0.15 -0.27 0.41 0.21 -0.15 0.29 -0.18 0.29 -0.2 0.29 -0.22 0.28 -0.24 0.28 -0.25 0.28 -0.28 0.28 -0.3 0.26 -0.32 0.27 -0.34 0.26 -0.36 0.25 -0.38 0.24 -0.4 0.24 -0.42 0.23 -0.45 0.23 -0.46 0.21 -0.49 0.21 -0.51 0.19 -0.53 0.19 -0.55 0.18 -0.57 0.16 -0.6 0.15 -0.62 0.15 -0.64 0.12 -0.67 0.12 -0.68 0.1 -0.71 0.09 -0.74 0.08 -0.75 0.06 -0.78 0.04 -0.81 0.03 -0.83 0.01 0 0z"/>
  </g>
  <path class="fil1 str0" d="M32.62 13.1c0,0 0.62,2.29 -2.39,3.26m-11.98 3.56c-20.55,0.93 -18.22,-11.35 -11.7,-9.25 1.29,0.41 -0.92,-1.06 0,-3.49 0.92,-2.43 4.04,-2.48 4.77,-1.79"/>
 </g>
</svg>
